<?xml version="1.0" encoding="utf-8"?><svg viewBox="0 0 30 27.8" xmlns="http://www.w3.org/2000/svg" xmlns:xlink="http://www.w3.org/1999/xlink"><style>:root>svg{display:none}:root>svg:target{display:block}</style><svg viewBox="0 0 13.5 27.8" id="fb" xmlns="http://www.w3.org/2000/svg"><path class="ast0" d="M9.5 27.8H2.7v-13H0V8.5h2.6c-.2-2.9.3-5 1.5-6.5C5.1.8 6.7.1 8.7 0h4.8v6.2H9.8c-.2.3-.3 1-.3 2.3h4v6.4h-4v12.9zm-5.3-1.5H8v-13h4V10H8v-.7c0-2 0-3.8 1-4.5l.2-.1H12V1.5H8.8c-1.6.1-2.7.6-3.5 1.5-1 1.2-1.4 3.3-1.1 6.1l.1.9H1.5v3.4h2.7v12.9z"/></svg><svg viewBox="0 0 23 23" id="insta" xmlns="http://www.w3.org/2000/svg"><path class="bst0" d="M17 1.5c2.5 0 4.5 2 4.5 4.5v11c0 2.5-2 4.5-4.5 4.5H6c-2.5 0-4.5-2-4.5-4.5V6c0-2.5 2-4.5 4.5-4.5h11M17 0H6C2.7 0 0 2.7 0 6v11c0 3.3 2.7 6 6 6h11c3.3 0 6-2.7 6-6V6c0-3.3-2.7-6-6-6z"/><path class="bst0" d="M11.5 7.1c2.4 0 4.4 2 4.4 4.4 0 2.4-2 4.4-4.4 4.4-2.4 0-4.4-2-4.4-4.4 0-2.4 2-4.4 4.4-4.4m0-1.5c-3.3 0-5.9 2.7-5.9 5.9s2.7 5.9 5.9 5.9 5.9-2.7 5.9-5.9-2.6-5.9-5.9-5.9z"/><circle class="bst0" cx="17.6" cy="5.4" r="1.3"/></svg><svg viewBox="0 0 30 15.8" id="vk" xmlns="http://www.w3.org/2000/svg"><path class="cst0" d="M23.9 15.8c-.4 0-1.2-.1-2.1-.6-.6-.4-1.2-1-1.8-1.5-.4-.4-1.2-1.2-1.4-1.2-.3.1-.5.9-.5 1.6 0 .1 0 .8-.5 1.2-.4.4-1.1.5-1.2.5h-1.9c-1 0-4.4-.2-7.4-3C3.4 9.4.3 3 .1 2.7 0 2.2-.1 1.5.3 1.1.7.7 1.4.6 1.7.6H5.9c.1 0 .6.1 1 .3.4.2.6.7.6.7S8.1 3 9 4.3c1.3 2 1.9 2.5 2.1 2.6.2-.4.3-1.7.2-2.9 0-.5-.1-1.1-.3-1.3-.1-.1-.4-.3-.8-.3l-.7-.6c-.1-.7.6-1.2 1.1-1.4.7-.3 1.8-.4 3.1-.4h.7c1.2 0 1.6.1 2.1.2 1.7.4 1.6 1.7 1.6 3.3v2.1c0 .4 0 1 .1 1.3.2-.1.9-.7 2.1-2.5.8-1.2 1.4-2.5 1.5-2.8.2-.4.6-.9 1.6-.9h4.7c1 0 1.6.3 1.8.9.3.6.2 1.7-2.4 4.6-.4.4-.7.8-1 1.1-.6.7-1.2 1.4-1.2 1.6.1.1.7.6 1.3 1.1 1.5 1.2 2.5 2.3 3 3.1.5.8.4 1.3.3 1.7-.4.9-1.6 1-1.9 1h-4.1zm-5.3-4.9c.9 0 1.7.8 2.5 1.6.5.5 1 1 1.5 1.3.7.4 1.3.4 1.4.4h3.9c.2 0 .4-.1.5-.1 0 0 0-.1-.1-.2-.4-.7-1.4-1.7-2.7-2.7-1.2-1-1.8-1.5-1.9-2.2-.1-.8.5-1.4 1.6-2.7.3-.3.6-.7 1-1.1 1.6-1.8 2-2.6 2.1-3H23.1c-.2.4-.8 1.8-1.6 3-1.9 2.8-2.8 3.2-3.4 3.2-.2 0-.4 0-.6-.1-1-.6-1-1.8-.9-2.8v-.4-1.7c.1-1.7 0-1.7-.4-1.8-.4-.1-.7-.1-1.9-.2h-.7c-.6 0-1.3 0-1.9.1l.3.3c.6.7.6 2 .6 2.2.1 1.6.1 3.8-1 4.3-.2.1-.4.1-.6.1-.9 0-1.9-.9-3.4-3.3-.8-1.2-1.5-2.7-1.5-2.8L6 2.2c-.1 0-.2-.1-.3-.1h-4-.1c.6 1.2 3.4 6.6 6.5 9.5 2.7 2.5 5.8 2.6 6.4 2.6h1.9s.2-.1.3-.1V14c0-.3 0-2.6 1.6-3 .1-.1.2-.1.3-.1z"/></svg></svg>